<?xml version="1.0" encoding="UTF-8"?>
<svg id="svg2624" xmlns="http://www.w3.org/2000/svg" xmlns:svg="http://www.w3.org/2000/svg" version="1.1" viewBox="0 0 1024 695">
  <defs>
    <style>
      .cls-1 {
        fill: #e41d13;
        fill-rule: evenodd;
        stroke-width: 0px;
      }
    </style>
  </defs>
  <path id="path2483" class="cls-1" d="M885.8,275.7c28.9,0,52.4,23.5,52.4,52.4s-23.5,52.4-52.4,52.4-52.4-23.5-52.4-52.4,23.5-52.4,52.4-52.4M423.7,301.6h92.1v48.7h-92.1v-48.7ZM139.5,359.4h58.8l-27.4-63.2h-4l-27.4,63.2ZM885.8,204.7c72.2,0,130.8,55.3,130.8,123.5s-58.6,123.5-130.8,123.5-41.5-4.8-59.3-13.4l-8.1,8.8h-102.4l-82.8-76.5h-5.1v76.5h-87.1v-233.7h86.7v74.7h4.7l58.5-74.7h101.6l-89.9,108.5-.2.2,70.7,69c-11.5-18.4-18.2-39.9-18.2-62.8,0-68.2,58.6-123.5,130.8-123.5M305.7,394.7v-181.5h87.1v170.1h123v63.6H235.6l-12.5-29.5h-108.5l-12.5,29.5H7.4l110.1-233.7h102.7l85.5,181.5Z"/>
</svg>