<?xml version="1.0" encoding="UTF-8"?>
<svg id="_Слой_1" data-name=" Слой 1" xmlns="http://www.w3.org/2000/svg" version="1.1" viewBox="0 0 1129.9 344.7">
  <defs>
    <style>
      .cls-1 {
        fill: #144579;
        fill-opacity: 0;
        stroke: #fc6;
        stroke-miterlimit: 13.3;
        stroke-width: 10px;
      }

      .cls-2 {
        fill: #fff;
        stroke-width: 0px;
      }
    </style>
  </defs>
  <polyline class="cls-1" points="586 98.9 586 52.8 14.4 6.8 14.4 336.5 586 290.4 586 244.4"/>
  <g>
    <polygon class="cls-2" points="60.5 112.7 60.5 112.7 60.5 112.7 60.5 112.7"/>
    <path class="cls-2" d="M60.5,161.1c0,6.7.9,12.7,2.8,18s4.4,9.9,7.7,13.5c3.3,3.6,7.2,6.4,11.7,8.4,4.5,1.9,9.5,2.9,15,2.9s10.5-.9,15-2.7c4.4-1.8,7.9-4.1,10.6-6.9v-34.8h-27.1v8.7h17.5v21.5c-1.7,1.5-3.9,2.7-6.5,3.6-2.7.9-5.4,1.3-8.4,1.3-4.5,0-8.4-.8-11.8-2.4-3.4-1.6-6.3-3.9-8.6-6.8-2.3-2.9-4.1-6.4-5.3-10.6-1.2-4.1-1.8-8.8-1.8-14s.6-9.7,1.9-13.9c1.3-4.1,3.1-7.6,5.5-10.5,2.3-2.9,5.2-5.1,8.6-6.7,3.4-1.6,7.1-2.3,11.3-2.3s7.7.7,10.4,2.2c2.7,1.5,5.2,3.3,7.2,5.5l5.9-6.7c-2.4-2.5-5.6-4.8-9.4-7-3.8-2.1-8.6-3.2-14.3-3.2s-10.6,1-15.2,3-8.6,4.8-12,8.5-6,8.2-7.9,13.5-2.9,11.3-2.9,17.9h.1ZM137.5,171.9c0,5,.7,9.5,2.3,13.5,1.5,3.9,3.6,7.3,6.3,10,2.6,2.7,5.7,4.8,9.3,6.3,3.5,1.5,7.4,2.2,11.5,2.2s8-.6,11.2-1.9c3.3-1.3,6.3-2.7,8.9-4.4l-3.6-6.8c-2.3,1.4-4.7,2.6-7.1,3.5-2.5.9-5.2,1.3-8.1,1.3-5.9,0-10.7-1.9-14.3-5.8-3.6-3.8-5.7-9.1-6.1-15.7h41.3c.2-1.5.4-3.4.4-5.7,0-4.4-.6-8.3-1.7-11.8-1.1-3.5-2.6-6.5-4.7-9.1-2.1-2.5-4.6-4.4-7.7-5.8-3.1-1.3-6.5-2-10.4-2s-6.9.7-10.2,2.2-6.2,3.6-8.7,6.4c-2.6,2.8-4.7,6.1-6.2,10.1s-2.3,8.5-2.3,13.5h0ZM180.3,167.2h-32.7c.3-3.1,1-5.9,2.1-8.2,1.1-2.4,2.3-4.4,4-6.1,1.6-1.6,3.4-2.9,5.3-3.8,2-.9,4.1-1.3,6.3-1.3,4.8,0,8.5,1.7,11.1,5s4,8.1,4,14.5h-.1ZM199.9,171.9c0,5,.8,9.5,2.3,13.5,1.6,4,3.6,7.4,6.3,10.1,2.6,2.7,5.6,4.8,9,6.2s7,2.2,10.8,2.2,7.4-.7,10.8-2.2c3.4-1.4,6.4-3.5,9-6.2s4.7-6.1,6.2-10.1c1.6-4,2.3-8.5,2.3-13.5s-.8-9.7-2.3-13.7-3.6-7.4-6.2-10.1c-2.6-2.8-5.6-4.9-9-6.3-3.4-1.4-7-2.1-10.8-2.1s-7.4.7-10.8,2.1c-3.4,1.4-6.4,3.5-9,6.3s-4.7,6.1-6.3,10.1c-1.5,4-2.3,8.6-2.3,13.7h0ZM210.6,171.9c0-3.5.4-6.7,1.3-9.6.8-2.9,2-5.4,3.6-7.5,1.5-2.1,3.4-3.7,5.6-4.8,2.2-1.2,4.6-1.7,7.2-1.7s5,.6,7.2,1.7c2.2,1.1,4.1,2.7,5.6,4.8,1.6,2.1,2.8,4.6,3.6,7.5s1.2,6.1,1.2,9.6-.4,6.7-1.2,9.6c-.8,2.9-2,5.3-3.6,7.4-1.6,2.1-3.4,3.6-5.6,4.8-2.2,1.1-4.6,1.7-7.2,1.7s-5-.6-7.2-1.7c-2.2-1.2-4.1-2.7-5.6-4.8-1.6-2.1-2.8-4.5-3.6-7.4-.9-2.9-1.3-6-1.3-9.6ZM272.7,112.7v77.4c0,4.5.8,8,2.5,10.3s4.5,3.5,8.4,3.5,2.6,0,3.5-.3c.9,0,1.7-.4,2.4-.7l-1.4-7.8c-.6.2-1.1.3-1.3.3h-1c-.7,0-1.4-.4-2-1-.6-.7-.9-1.8-.9-3.5v-78.1h-10.3,0ZM310.2,128.6c2,0,3.7-.6,5.1-1.9,1.4-1.3,2.1-2.9,2.1-4.8s-.7-3.6-2.1-4.9c-1.4-1.2-3.1-1.8-5.1-1.8s-3.7.6-5.1,1.8c-1.4,1.2-2.1,2.9-2.1,4.9s.7,3.5,2.1,4.8c1.4,1.2,3.1,1.9,5.1,1.9ZM304.9,141.1v61.2h10.3v-61.2h-10.3ZM335.9,141.1v61.2h10.3v-44.3c3.1-3.1,5.9-5.5,8.3-7,2.4-1.6,5.2-2.4,8.4-2.4s7,1.3,8.8,3.8c1.9,2.6,2.8,6.8,2.8,12.5v37.4h10.3v-38.8c0-7.9-1.5-13.9-4.5-17.9-3-4.1-7.7-6-14.2-6s-8.1,1-11.3,2.9c-3.2,2-6.3,4.4-9.3,7.4h-.4l-.9-8.8h-8.6.3ZM404.7,112.7v89.7h10.2v-16.1l11.5-13.4,17.9,29.5h11.4l-23.3-36.7,20.5-24.6h-11.5l-26.1,32.3h-.4v-60.7h-10.2ZM493.6,119.7v82.6h48.9v-8.9h-38.4v-30h31.4v-9h-31.4v-25.9h37.2v-8.8h-47.7,0ZM558.9,141.1v61.2h10.3v-44.3c3.1-3.1,5.9-5.5,8.3-7,2.4-1.6,5.2-2.4,8.4-2.4s7,1.3,8.8,3.8c1.8,2.6,2.8,6.8,2.8,12.5v37.4h10.3v-38.8c0-7.9-1.5-13.9-4.5-17.9-3-4.1-7.7-6-14.2-6s-8,1-11.3,2.9c-3.2,2-6.3,4.4-9.3,7.4h-.4l-.9-8.8h-8.6.3ZM632.2,212.7c0-1.7.5-3.5,1.5-5.3,1-1.7,2.6-3.4,4.8-5,1.3.4,2.7.7,4.1.8,1.4,0,2.7.2,3.8.2h10.6c4.1,0,7.1.6,9.2,1.6,2.1,1.1,3.1,3.1,3.1,5.9s-.5,3.1-1.4,4.7c-.9,1.5-2.2,2.9-3.9,4-1.7,1.2-3.7,2.1-6.1,2.8-2.4.7-5.1,1.1-8,1.1-5.5,0-9.9-1-13-2.9-3.2-1.9-4.7-4.6-4.7-7.8h0ZM623.2,214.1c0,2.7.6,5.1,1.8,7.1s2.9,3.7,5.2,5.2c2.2,1.4,4.9,2.5,8,3.2s6.5,1.1,10.3,1.1,9.1-.6,12.9-1.7c3.8-1.2,7.1-2.7,9.8-4.6,2.7-1.9,4.8-4.2,6.2-6.7,1.4-2.6,2.1-5.3,2.1-8.1,0-5.1-1.8-8.8-5.3-11.1-3.6-2.3-8.9-3.5-16.1-3.5h-11.8c-4.2,0-7-.6-8.6-1.9-1.5-1.3-2.3-2.9-2.3-4.8s.4-3.1,1.1-4.2c.8-1.1,1.7-2.2,2.8-3.1,1.4.7,2.9,1.2,4.6,1.6,1.6.4,3.1.6,4.7.6,3.1,0,6-.5,8.7-1.5s5.1-2.4,7.1-4.2,3.6-4,4.8-6.7c1.2-2.6,1.7-5.6,1.7-8.9s-.5-5-1.4-7.2c-1-2.2-2.2-4-3.6-5.4h12.6v-8h-21.3c-1.2-.4-2.5-.7-4-1.1-1.5-.3-3-.4-4.7-.4-3.1,0-6.1.5-8.9,1.5-2.8,1-5.2,2.5-7.4,4.4-2.1,1.9-3.7,4.2-5,6.9-1.2,2.7-1.8,5.7-1.8,9.1s.8,7,2.5,9.8c1.6,2.8,3.5,5.1,5.5,6.7v.5c-1.6,1.1-3.1,2.6-4.6,4.6-1.4,1.9-2.1,4.2-2.1,6.8s.5,4.5,1.6,6.1c1.1,1.7,2.3,2.9,3.8,3.9v.5c-2.8,1.9-4.9,4.1-6.5,6.4-1.6,2.3-2.4,4.8-2.4,7.4v-.3h0ZM648.5,176c-1.7,0-3.4-.3-5-1-1.6-.6-2.9-1.6-4.1-2.9-1.2-1.2-2.2-2.8-2.9-4.6-.6-1.8-1-3.9-1-6.1,0-4.6,1.3-8.1,3.8-10.5s5.6-3.7,9.2-3.7,6.7,1.2,9.2,3.7,3.8,6,3.8,10.5-.3,4.3-1,6.1-1.6,3.3-2.9,4.6c-1.2,1.3-2.6,2.3-4.1,2.9-1.6.7-3.2,1-5,1ZM696.6,128.6c2,0,3.7-.6,5.1-1.9,1.4-1.3,2.1-2.9,2.1-4.8s-.7-3.6-2.1-4.9c-1.4-1.2-3.1-1.8-5.1-1.8s-3.7.6-5.1,1.8c-1.4,1.2-2.1,2.9-2.1,4.9s.7,3.5,2.1,4.8c1.4,1.2,3.1,1.9,5.1,1.9ZM691.3,141.1v61.2h10.4v-61.2h-10.4ZM722.3,141.1v61.2h10.4v-44.3c3.1-3.1,5.8-5.5,8.3-7,2.4-1.6,5.2-2.4,8.4-2.4s7,1.3,8.8,3.8c1.8,2.6,2.8,6.8,2.8,12.5v37.4h10.3v-38.8c0-7.9-1.5-13.9-4.5-17.9-2.9-4.1-7.7-6-14.1-6s-8.1,1-11.3,2.9c-3.3,2-6.4,4.4-9.3,7.4h-.4l-.9-8.8h-8.6,0ZM786.7,171.9c0,5,.8,9.5,2.3,13.5,1.5,3.9,3.6,7.3,6.3,10,2.6,2.7,5.8,4.8,9.3,6.3,3.6,1.5,7.4,2.2,11.6,2.2s7.9-.6,11.2-1.9c3.3-1.3,6.3-2.7,8.9-4.4l-3.6-6.8c-2.3,1.4-4.7,2.6-7.1,3.5-2.5.9-5.2,1.3-8.1,1.3-5.9,0-10.6-1.9-14.3-5.8-3.7-3.8-5.7-9.1-6.1-15.7h41.3c.3-1.5.4-3.4.4-5.7,0-4.4-.5-8.3-1.6-11.8s-2.7-6.5-4.7-9.1c-2-2.5-4.6-4.4-7.7-5.8-3-1.3-6.5-2-10.4-2s-7,.7-10.2,2.2c-3.3,1.5-6.2,3.6-8.7,6.4-2.6,2.8-4.6,6.1-6.2,10.1-1.6,4-2.3,8.5-2.3,13.5h-.3ZM829.5,167.2h-32.7c.3-3.1,1-5.9,2.1-8.2,1.1-2.4,2.4-4.4,4-6.1,1.6-1.6,3.4-2.9,5.4-3.8,2-.9,4.1-1.3,6.2-1.3,4.8,0,8.5,1.7,11.1,5,2.7,3.3,4,8.1,4,14.5h0ZM849.2,171.9c0,5,.8,9.5,2.3,13.5,1.5,3.9,3.6,7.3,6.3,10,2.6,2.7,5.8,4.8,9.3,6.3,3.6,1.5,7.4,2.2,11.6,2.2s7.9-.6,11.2-1.9c3.3-1.3,6.3-2.7,8.9-4.4l-3.6-6.8c-2.3,1.4-4.7,2.6-7.1,3.5-2.4.9-5.2,1.3-8.1,1.3-5.9,0-10.6-1.9-14.3-5.8-3.6-3.8-5.7-9.1-6.1-15.7h41.3c.3-1.5.4-3.4.4-5.7,0-4.4-.5-8.3-1.6-11.8s-2.7-6.5-4.7-9.1c-2-2.5-4.6-4.4-7.7-5.8-3-1.3-6.5-2-10.4-2s-7,.7-10.2,2.2c-3.3,1.5-6.2,3.6-8.7,6.4-2.6,2.8-4.6,6.1-6.2,10.1-1.6,4-2.3,8.5-2.3,13.5h-.3ZM892,167.2h-32.7c.3-3.1,1-5.9,2.1-8.2,1.1-2.4,2.4-4.4,4-6.1,1.6-1.6,3.4-2.9,5.4-3.8,2-.9,4.1-1.3,6.2-1.3,4.8,0,8.5,1.7,11.1,5,2.7,3.3,4,8.1,4,14.5h0ZM916.2,141.1v61.2h10.3v-39.3c2.1-5.2,4.6-8.8,7.4-11,2.8-2.1,5.5-3.1,8.1-3.1s2.3,0,3.2.2c.8.2,1.7.5,2.8.8l2-9.1c-1.9-.8-4.1-1.2-6.5-1.2-3.5,0-6.8,1.1-9.8,3.4-3,2.3-5.5,5.3-7.6,9.2h-.4l-.9-11.1h-8.6ZM965.2,128.6c2,0,3.7-.6,5.1-1.9,1.4-1.3,2.1-2.9,2.1-4.8s-.7-3.6-2.1-4.9c-1.4-1.2-3.1-1.8-5.1-1.8s-3.7.6-5.1,1.8c-1.4,1.2-2.1,2.9-2.1,4.9s.7,3.5,2.1,4.8c1.4,1.2,3.1,1.9,5.1,1.9ZM959.9,141.1v61.2h10.3v-61.2h-10.3ZM990.9,141.1v61.2h10.3v-44.3c3.1-3.1,5.9-5.5,8.3-7,2.4-1.6,5.2-2.4,8.4-2.4s7,1.3,8.8,3.8c1.8,2.6,2.8,6.8,2.8,12.5v37.4h10.3v-38.8c0-7.9-1.5-13.9-4.5-17.9-3-4.1-7.7-6-14.2-6s-8,1-11.3,2.9c-3.2,2-6.3,4.4-9.3,7.4h-.4l-.9-8.8h-8.6.3,0ZM1064.2,212.7c0-1.7.5-3.5,1.5-5.3,1-1.7,2.6-3.4,4.8-5,1.3.4,2.7.7,4.1.8s2.7.2,3.8.2h10.6c4.1,0,7.1.6,9.2,1.6,2.1,1.1,3.1,3.1,3.1,5.9s-.5,3.1-1.4,4.7c-.9,1.5-2.2,2.9-3.9,4-1.7,1.2-3.7,2.1-6.1,2.8s-5.1,1.1-8,1.1c-5.5,0-9.9-1-13-2.9-3.2-1.9-4.7-4.6-4.7-7.8h0ZM1055.1,214.1c0,2.7.6,5.1,1.8,7.1,1.2,2,2.9,3.7,5.2,5.2,2.2,1.4,4.9,2.5,8,3.2s6.5,1.1,10.3,1.1,9.1-.6,12.9-1.7c3.8-1.2,7-2.7,9.8-4.6,2.7-1.9,4.7-4.2,6.2-6.7,1.4-2.6,2.1-5.3,2.1-8.1,0-5.1-1.8-8.8-5.3-11.1-3.6-2.3-8.9-3.5-16.1-3.5h-11.8c-4.2,0-7-.6-8.6-1.9-1.5-1.3-2.3-2.9-2.3-4.8s.4-3.1,1.1-4.2c.8-1.1,1.7-2.2,2.8-3.1,1.4.7,2.9,1.2,4.6,1.6,1.6.4,3.1.6,4.7.6,3.1,0,6-.5,8.7-1.5,2.8-1,5.1-2.4,7.1-4.2s3.6-4,4.8-6.7c1.2-2.6,1.7-5.6,1.7-8.9s-.5-5-1.4-7.2c-1-2.2-2.2-4-3.6-5.4h12.6v-8h-21.3c-1.2-.4-2.5-.7-4-1.1-1.5-.3-3-.4-4.7-.4-3.1,0-6.1.5-8.9,1.5s-5.2,2.5-7.4,4.4c-2.1,1.9-3.7,4.2-5,6.9-1.2,2.7-1.8,5.7-1.8,9.1s.8,7,2.4,9.8,3.5,5.1,5.5,6.7v.5c-1.6,1.1-3.1,2.6-4.6,4.6-1.4,1.9-2.1,4.2-2.1,6.8s.5,4.5,1.6,6.1c1.1,1.7,2.3,2.9,3.9,3.9v.5c-2.8,1.9-5,4.1-6.6,6.4-1.6,2.3-2.4,4.8-2.4,7.4v-.3h.1ZM1080.4,176c-1.7,0-3.4-.3-5-1-1.6-.6-2.9-1.6-4.1-2.9-1.2-1.2-2.2-2.8-2.9-4.6-.6-1.8-1-3.9-1-6.1,0-4.6,1.3-8.1,3.8-10.5s5.6-3.7,9.2-3.7,6.7,1.2,9.2,3.7,3.8,6,3.8,10.5-.3,4.3-1,6.1-1.6,3.3-2.8,4.6c-1.2,1.3-2.6,2.3-4.2,2.9-1.6.7-3.2,1-5,1Z"/>
  </g>
</svg>