<?xml version="1.0" encoding="UTF-8"?>
<svg id="svg2624" xmlns="http://www.w3.org/2000/svg" xmlns:svg="http://www.w3.org/2000/svg" version="1.1" viewBox="0 0 1024 695">
  <defs>
    <style>
      .cls-1, .cls-2 {
        fill: #353332;
        stroke-width: 0px;
      }

      .cls-2 {
        fill-rule: evenodd;
      }
    </style>
  </defs>
  <path class="cls-1" d="M206.9,486.7H26.6l-.6-4.4c-.5-3.5-1.2-7.6-2-12.2-8.1-47.8-26.8-157.7,50.3-260.2l1.6-2.1h87.4l1.6,2.1c40.9,53.7,55,112.7,57.7,163,2.7,50-5.9,91.4-10.5,109.9l-1,3.9h-4.2ZM35.9,476.6h166.8c4.6-19.6,11.8-57.7,9.3-103.3-2.6-48-15.9-104.2-54.1-155.5h-76.4c-72.8,98.6-54.8,204.5-46.9,250.8.5,2.9,1,5.6,1.4,8h0Z"/>
  <path class="cls-2" d="M822.7,247.3h53.9l26.9,98.6v-98.6h53.3v201.5h-53.3l-26.9-90v90h-53.9v-201.5h0ZM551.7,247.3v164.3c0,4.9,5.4,10.2,9.7,10.2h8.6c5.4,0,8.6-5.4,8.6-10.2v-164.3h55v180c0,12.4-9.7,21.6-21,21.6h-94.3c-10.8,0-19.9-9.2-19.9-21.6v-180h53.3ZM417.5,448.8l-26.4-59.3v59.3h-55v-201.5h113.1c11.3,0,22.1,9.2,22.1,21.6v99.7c0,9.7-8.6,21-21,21h-5.9l26.9,59.3h-53.9ZM417.5,344.8v-64.1c0-2.2-3.2-5.4-6.5-5.4h-19.9v86.7h19.9c3.2,0,6.5-3.2,6.5-5.4v-70,58.2h0ZM796.3,448.8h-134.2v-201.5h134.2v26.9h-79.7v60.3h79.7v26.4h-79.7v59.8h79.7v28h0ZM282.3,207.4h725.8v280.2H282.3V207.4h0Z"/>
  <path class="cls-1" d="M119.6,368.1h0c4.2,0,7.9,1.9,10.6,4.8h0c2.7,2.8,4.3,6.7,4.3,10.7h0c0,4.1-1.7,7.9-4.3,10.7-2.7,2.9-6.5,4.8-10.7,4.8h0c-4.4,0-8.3-1.9-11-4.7-2.8-2.9-4.4-6.7-4.4-10.8h0c0-4.1,1.7-7.9,4.4-10.8,2.8-2.9,6.7-4.7,11.1-4.7h0ZM189.6,463.7h-28.5c8.1-4.3,15.5-9.7,21.9-16.1h0c5.5-5.6,10.4-11.8,14.3-18.6-1.9,14.7-4.4,26.3-6.1,33.7l-.3,1.1h-1.3ZM77.3,463.7h-30.8l-.2-1.3c-.4-3-1-6.6-1.6-10.7-1-6.2-2.2-13.5-3.2-21.8,3.9,6.5,8.5,12.4,13.8,17.7,6.4,6.4,13.8,11.9,21.9,16.1h0ZM42.1,336.3c5.5-33.1,17.9-69,42.7-103.8l.5-.7h68l.5.7c24.2,33.7,36.7,70,42.3,103.7-3.7-6-8.1-11.6-13.1-16.6-16.4-16.4-39-26.5-63.9-26.5h0c-24.7,0-47.3,10.1-63.7,26.5-5,5-9.5,10.6-13.2,16.6h0ZM119.1,308.1h0c-20.6,0-39.5,8.5-53.2,22.1-13.7,13.7-22.3,32.5-22.3,53.3h0c0,20.9,8.6,39.8,22.3,53.4,13.7,13.7,32.6,22.1,53.2,22.1h0c20.8,0,39.7-8.5,53.4-22.1h0c13.6-13.6,22.1-32.5,22.1-53.3h0c0-20.9-8.5-39.8-22.1-53.4-13.7-13.7-32.5-22.1-53.3-22.1h0ZM119.1,336.2h0c-12.7,0-24.3,5.2-32.7,13.6-8.4,8.4-13.6,20-13.6,32.7h0c0,12.8,5.2,24.4,13.6,32.8,8.4,8.4,20,13.6,32.7,13.6h0c13,0,24.6-5.2,32.9-13.6,8.3-8.4,13.4-20,13.4-32.7h0c0-12.8-5.1-24.4-13.4-32.8-8.3-8.4-19.9-13.6-32.9-13.6h0ZM119,321.1h0c17.1,0,32.5,6.9,43.6,18.1,11.1,11.1,17.8,26.5,17.8,43.3h0c0,16.9-6.8,32.2-17.8,43.4-11.1,11.1-26.4,18.1-43.6,18.1h0c-16.9,0-32.2-6.9-43.3-18-11.1-11.1-18.1-26.5-18.1-43.4h0c0-16.9,6.9-32.2,18-43.4,11.1-11.1,26.5-18.1,43.4-18.1h0Z"/>
</svg>