<?xml version="1.0" encoding="UTF-8"?>
<svg id="svg2624" xmlns="http://www.w3.org/2000/svg" xmlns:svg="http://www.w3.org/2000/svg" version="1.1" viewBox="0 0 1024 695">
  <defs>
    <style>
      .cls-1 {
        fill: #00559c;
        fill-rule: evenodd;
        stroke-width: 0px;
      }
    </style>
  </defs>
  <path class="cls-1" d="M624.4,400.6h32.9s.7-33.4.7-33.4l6.2-5.6,22.7,38.9h40.9c-3.4-9.8-36.6-55.5-40.3-64.8l20.1-22.1c4.4-5.6,17.1-17.8,19.5-22.8h-39.8l-29.3,38.1v-72.1h-33.1l-.6,143.7h0ZM513.1,305.1l20,20.2c5.5-2.8,11.2-7.9,20.7-7.2,9.3.7,15.2,7.4,13.7,17.7-20.9,0-59.3-8.3-58.9,36,2.9,28,38,38.9,60,21.2v7.8h32.2c0,0,.4-71,.4-71-.6-16.6-5-21.2-8.8-27.2-16.2-17.9-66.6-17.6-79.3,2.7h0ZM566.9,357.1c1.2,8.3-.7,13.1-6,15.7-4.6,2.2-13.8,2.9-17.6-.3-4.9-4.1-3.8-12.5,2.6-14.7,4-1.4,15.8-.8,20.9-.8h0ZM933.8,364.2l-20.6,21.6c10.5,14.6,40.2,19,60.8,15.1,17.3-3.3,34-14.6,34-32.9.2-38.6-36-35.5-53-38-6.1-.9-6.7-9.9,2.3-12,10.1-2.4,19.5,1.4,27.7,5.8l20.3-19.9c-12.2-10.8-36.4-16.9-57.8-11.7-17.9,4.3-32.6,18.3-28.4,41.7,4,22.6,23.5,22.4,46.7,25.5,19.6,2.6,8.5,20.9-18,12.2-6.3-2.1-9.8-5-14.2-7.3h0ZM938.8,425.3l12.4-15.1h24l-7.8,15.1h-28.6ZM743.2,295.2h-9.5v25.7h9.6v46.9c0,34.2,31.2,32.9,50.7,32.7v-28.6c-21.9.2-17.4,4.2-17.3-51h16.7v-25.7h-16.7v-30.8h-33.5v30.8h0ZM392.7,471.1c-37.2,70.7-295.9,75.4-339.2.7-12.1-20.9-10.8-53.7-.9-90.1H15.9v-46.2h53c35.3-82.4,102.3-166,153.6-166.5,51.2-.5,116.2,84,151.4,166.5h56v46.2h-39.4c10.5,36.7,12.7,69.5,2.2,89.4h0ZM121.7,335.5h200.7c-29.1-60.3-71.9-120.9-103.3-120.2-26.7.6-68.6,60.5-97.3,120.2h0ZM341.9,381.7H102.2c-10.9,30.5-15.5,56.2-9.1,67.2,21.2,36,103.6,33.3,129.6,33.3,25.4,0,111.3,1.2,129.8-32.9,5.7-10.4.7-36.5-10.6-67.6h0ZM812,305.1l20,20.2c5.5-2.8,11.2-7.9,20.7-7.2,9.3.7,15.2,7.4,13.7,17.7-20.9,0-59.3-8.3-58.9,36,2.9,28,38,38.9,60,21.2v7.8h32.2c0,0,.4-71,.4-71-.6-16.6-5-21.2-8.8-27.2-16.2-17.9-66.6-17.6-79.3,2.7h0ZM865.9,357.1c1.2,8.3-.7,13.1-6,15.7-4.6,2.2-13.8,2.9-17.6-.3-4.9-4.1-3.8-12.5,2.6-14.7,4-1.4,15.8-.8,20.9-.8Z"/>
</svg>